<?xml version="1.0" encoding="UTF-8"?>
<svg id="Layer_1" data-name="Layer 1" xmlns="http://www.w3.org/2000/svg" viewBox="0 0 1477.06 352.38">
  <defs>
    <style>
      .cls-1 {
        fill-rule: evenodd;
      }

      .cls-1, .cls-2 {
        fill: #fff;
        stroke-width: 0px;
      }
    </style>
  </defs>
  <g id="Logo_Mark" data-name="Logo Mark">
    <path class="cls-1" d="M45.97,295.45c-1.32-1.59-2.62-3.2-3.96-4.77C16.98,261.06,3.02,226.87.43,188.23c-2.56-37.99,6.42-73.25,26.5-105.63,4.72-7.61,10.07-14.78,16.05-21.62,5.98,5.98,11.93,11.93,17.86,17.86-28.41,35.13-40.19,75.06-33.77,119.85,5.18,36.17,21.87,66.54,49.17,90.75,57.04,50.57,139.09,49.05,193.36,5.82,33.3-26.52,52.7-61.1,57.02-103.5,4.31-42.32-7.8-79.95-34.69-112.94,5.93-5.93,11.86-11.86,17.95-17.95,2.46,3.05,4.95,5.96,7.25,9.01,8.87,11.74,16.42,24.29,21.87,37.96,21.81,54.73,18.19,107.78-11.07,158.97-5.61,9.81-12.41,18.8-20.01,27.18-.4.44-.71.97-1.06,1.45-3.8,3.8-7.59,7.59-11.39,11.39-.45.32-.94.59-1.34.96-7.38,6.73-15.32,12.74-23.79,18-32.45,20.17-67.81,29.17-105.91,26.58-38.58-2.63-72.72-16.58-102.29-41.58-1.58-1.33-3.18-2.64-4.78-3.96-3.8-3.8-7.59-7.59-11.39-11.39Z"/>
    <path class="cls-1" d="M77.35,95.26c6.03,6.03,11.96,11.96,17.92,17.92-18.3,24.43-25.15,51.68-19.9,81.72,4.16,23.79,15.79,43.57,33.99,59.35,39.34,34.1,97.43,32.67,135.05-.8,42.63-37.92,44.95-99.8,13.14-140.21,5.95-5.95,11.91-11.91,17.87-17.87,33.94,39.13,42.65,107.98,1.96,159.87-46.8,59.69-131.3,64.4-184.39,18.4-56.8-49.2-56.54-129.74-15.65-178.38Z"/>
    <path class="cls-1" d="M112.23,130.06c2.69,2.69,5.3,5.3,7.91,7.91,3.04,3.04,6.03,6.15,9.16,9.1,1.04.98.95,1.66.35,2.79-9.54,17.78-9.7,35.7.15,53.29,15.17,27.1,50.94,35.34,76.56,17.94,23.59-16.01,30.73-46.59,16.69-71.5-.54-.96-.53-1.49.27-2.29,5.48-5.41,10.91-10.86,16.35-16.31l.86-.86c20.3,26.89,21.83,70.13-6.08,100.14-29.05,31.24-76.41,33.5-108.1,7.48-34.14-28.04-37.48-75.58-14.11-107.68Z"/>
    <path class="cls-1" d="M291.83,43.06c-5.99,5.99-11.89,11.89-17.86,17.86-28.34-23.37-60.81-35.55-97.55-35.54-36.7,0-69.14,12.15-97.51,35.52-5.96-5.96-11.91-11.91-17.87-17.87,65.4-57.47,165.66-57.29,230.8.03Z"/>
    <path class="cls-1" d="M239.55,95.27c-18.64-14.27-39.71-21.61-63.21-21.6-23.44.02-44.47,7.35-63.1,21.62-6-6-11.94-11.94-18.04-18.04,20.91-16.87,44.63-26.6,71.34-28.55,34-2.48,64.29,7.27,91.09,28.48-6.08,6.08-12.04,12.04-18.08,18.08Z"/>
    <path class="cls-1" d="M199.32,199.25c-12.58,12.56-32.92,12.49-45.55-.16-12.6-12.62-12.49-32.95.26-45.66,12.46-12.41,32.86-12.34,45.33.16,12.68,12.7,12.65,32.97-.05,45.66Z"/>
    <path class="cls-1" d="M222.73,112.23c-5.03,5.03-9.97,9.98-14.91,14.91-1.07,1.07-2.05,2.73-3.3,2.98-1.12.22-2.53-1.16-3.85-1.78-17.2-8.11-34.19-7.77-50.93,1.35-1.03.56-1.63.63-2.54-.3-5.31-5.43-10.71-10.77-16.08-16.14l-.97-.97c24.23-18.46,63.08-21.6,92.58-.07Z"/>
  </g>
  <g>
    <path class="cls-2" d="M529.69,133.87c-1.17-4.46-3.76-8.45-7.04-11.03-4.46-3.28-10.79-4.46-15.49-4.46-9.15,0-14.78,3.28-17.83,6.1-3.76,3.28-6.57,8.45-6.57,14.08s2.35,8.92,5.63,11.97c4.93,4.46,9.39,5.63,15.25,8.21l12.67,5.63c10.09,4.46,16.19,9.85,19.71,14.31,6.33,7.74,8.21,15.96,8.21,25.58,0,18.06-6.33,30.27-14.31,38.71-12.67,13.14-28.62,15.72-40.82,15.72s-22.76-2.58-31.44-11.03c-7.74-7.51-14.08-20.18-14.55-35.19l24.17-5.16c-.23,6.1,1.17,15.49,5.4,21.11,3.75,4.93,9.85,8.21,19.94,8.21,8.45,0,14.31-2.81,18.54-6.57,6.1-5.39,8.91-15.02,8.91-22.99,0-6.33-2.35-10.79-6.1-14.78-4.46-4.69-10.79-7.51-15.95-9.85l-11.96-5.4c-5.63-2.58-13.14-6.57-18.54-12.43-4.93-5.63-8.68-13.61-8.68-23,0-2.11,0-17.13,12.44-30.27,8.44-8.91,20.65-15.02,37.3-15.02,7.74,0,17.83,1.18,26.98,7.27,8.45,5.63,12.67,12.9,14.78,19l-20.65,11.27Z"/>
    <path class="cls-2" d="M571.92,309.37h-22.99l18.77-152.5h22.99l-1.41,10.79c3.28-4.46,7.04-7.27,11.73-9.39,5.87-2.81,11.5-3.99,17.6-3.99,12.43,0,24.17,5.16,31.44,12.67,7.27,7.51,12.43,19.24,12.43,33.55,0,17.13-7.04,33.79-16.66,44.11-8.45,8.91-19,14.31-32.85,14.31-8.21,0-15.95-1.64-22.29-5.4-4.22-2.58-7.98-6.1-10.79-9.38l-7.98,65.22ZM593.5,182.2c-6.8,6.57-10.79,17.59-10.79,28.62,0,5.63.94,13.61,6.57,19.47,4.22,4.46,10.79,7.75,18.77,7.75s14.31-2.82,19.47-7.98c6.34-6.33,11.26-16.89,11.26-27.68,0-8.21-2.82-15.25-7.04-19.94-4.93-5.4-11.03-7.51-18.54-7.51s-13.61,1.41-19.71,7.27Z"/>
    <path class="cls-2" d="M766.65,167.42c6.33,6.57,13.37,17.83,13.37,34.25,0,11.27-2.58,27.69-17.13,41.76-11.96,11.5-24.63,15.25-40.59,15.25-12.67,0-24.4-2.34-35.19-13.37-7.27-7.51-13.61-18.54-13.61-34.49,0-17.13,6.8-31.44,17.13-41.29,10.79-10.32,23.93-15.25,40.82-15.25,10.32,0,23.93,1.88,35.19,13.14ZM747.18,228.66c5.63-6.1,9.39-15.02,9.39-25.58,0-5.39-1.17-13.84-7.74-20.64-4.93-5.16-11.26-7.51-18.77-7.51-10.56,0-17.83,3.99-22.29,8.21-6.8,6.34-10.79,15.72-10.79,25.81,0,7.51,2.58,15.02,7.27,20.41,2.35,2.58,8.91,8.68,21.11,8.68,7.98,0,15.49-2.58,21.82-9.39Z"/>
    <path class="cls-2" d="M831.64,84.6l-13.14,105.34,36.37-33.08h30.5l-48.1,41.29,38.48,57.48h-28.62l-27.22-42.23-4.69,4.23-4.69,38.01h-22.99l21.11-171.04h22.99Z"/>
    <path class="cls-2" d="M973.34,233.12c-4.93,8.22-11.73,14.55-18.3,18.54-5.63,3.28-14.55,7.04-27.69,7.04-12.2,0-22.76-3.28-31.67-12.43-7.74-7.75-13.37-19.71-13.37-35.19,0-16.89,6.34-31.67,17.13-42.23,9.62-9.38,21.35-14.55,36.13-14.55,9.15,0,20.65,1.88,29.8,11.5,7.51,7.74,12.2,20.18,12.2,34.49,0,3.05-.23,7.04-1.17,11.5h-70.62c0,7.04,2.58,15.02,7.27,19.94,3.05,3.28,8.44,6.34,16.19,6.34,5.4,0,11.26-1.64,15.72-4.46,3.99-2.58,7.98-7.04,10.32-11.26l18.06,10.79ZM955.28,193c-.7-4.93-3.05-10.56-5.87-13.61-3.28-3.52-8.68-5.4-14.31-5.4s-11.73,1.88-16.66,5.86c-3.99,3.28-7.27,8.45-9.15,13.14h45.99Z"/>
    <path class="cls-2" d="M998.45,156.86h22.99l-1.17,8.92c3.05-3.76,6.1-5.87,9.85-7.74,5.87-2.82,11.03-3.76,16.89-3.76,11.97,0,19.24,4.22,23.46,8.45,5.16,5.16,8.91,13.14,8.91,23.46,0,3.75-.47,7.98-2.11,20.88l-6.1,48.57h-22.99l6.33-50.91c1.17-8.68,1.17-12.2,1.17-13.14,0-3.99-.71-9.15-4.46-12.67-3.05-2.81-7.51-3.99-11.73-3.99-8.21,0-12.91,3.52-14.78,5.4-6.1,5.87-8.21,15.96-9.62,27.69l-5.87,47.63h-22.99l12.2-98.78Z"/>
    <path class="cls-2" d="M1106.37,99.15l28.39,104.64,56.07-112.15,26.98,112.15,55.61-104.64h26.28l-90.33,166.58-27.21-110.98-54.9,110.98-46.22-166.58h25.34Z"/>
    <path class="cls-2" d="M1356.94,233.12c-4.93,8.22-11.73,14.55-18.3,18.54-5.63,3.28-14.55,7.04-27.68,7.04-12.2,0-22.76-3.28-31.67-12.43-7.75-7.75-13.37-19.71-13.37-35.19,0-16.89,6.33-31.67,17.12-42.23,9.62-9.38,21.35-14.55,36.13-14.55,9.15,0,20.64,1.88,29.8,11.5,7.51,7.74,12.2,20.18,12.2,34.49,0,3.05-.24,7.04-1.18,11.5h-70.62c0,7.04,2.58,15.02,7.27,19.94,3.05,3.28,8.45,6.34,16.19,6.34,5.39,0,11.26-1.64,15.72-4.46,3.99-2.58,7.98-7.04,10.32-11.26l18.06,10.79ZM1338.87,193c-.71-4.93-3.05-10.56-5.87-13.61-3.28-3.52-8.68-5.4-14.31-5.4s-11.73,1.88-16.66,5.86c-3.99,3.28-7.27,8.45-9.15,13.14h45.98Z"/>
    <path class="cls-2" d="M1403.86,168.36c3.05-3.99,7.51-7.74,11.5-9.85,5.63-3.05,13.14-4.22,19.94-4.22,7.98,0,19.71,1.64,29.33,11.26,6.57,6.57,12.43,17.36,12.43,33.79,0,18.77-6.57,34.02-16.19,44.34-10.56,11.26-22.76,15.02-37.07,15.02-6.8,0-12.9-.94-19.47-4.69-4.23-2.35-7.51-5.4-10.09-8.68l-1.18,10.32h-22.99l21.12-171.04h22.99l-10.32,83.76ZM1407.62,183.85c-6.33,6.8-10.09,16.89-10.09,26.98,0,8.68,3.28,15.95,7.98,20.64,3.99,3.99,9.62,6.57,16.89,6.57s14.55-2.35,20.88-8.92c6.34-6.57,10.32-16.42,10.32-26.51s-3.52-16.89-7.74-21.12c-4.46-4.46-9.85-6.57-16.66-6.57-8.21,0-15.49,2.35-21.58,8.92Z"/>
  </g>
</svg>